# xmcd
#
# Track frame offsets: 
#        150
#        32920
#        72145
#        103037
#        149192
#
# Disc length: 2212 seconds
#
# Revision: 2
# Processed by: cddbd v1.5.2PL0 Copyright (c) Steve Scherf et al.
# Submitted via: ExactAudioCopyFreeDBPlugin 1.0
#
DISCID=4a08a205
DTITLE=Ben Harper and The Innocent Criminals - Hollywood Bowl - Live EP
DYEAR=2003
DGENRE=Blues
TTITLE0=Ben Harper - Brown Eyed Blues
TTITLE1=Ben Harper - With My own Two hands - War
TTITLE2=Ben Harper - Sexual Healing
TTITLE3=Ben Harper - Amen Omen
TTITLE4=Ben Harper - Fake Track
EXTD=
EXTT0=
EXTT1=
EXTT2=
EXTT3=
EXTT4=
PLAYORDER=
